#!OML:ASF H:\GeneralSubjects\Female5\Project 1\Capture day 1\Session 1\Female5.ASF
:FULLY-SPECIFIED
:DEGREES
77
root -36.4467 15.5795 0.554408 -192.56 86.6989 -207.132
lowerback 13.7304 2.39154 2.2345
upperback -9.91834 3.43112 -3.96833
thorax -18.9645 0.934408 -6.9974
lowerneck -17.3861 -5.84244 -0.699198
upperneck 41.4505 -10.1101 7.62262
head 19.489 -2.23563 1.97805
rclavicle 2.21769e-014 1.59028e-015
rhumerus -57.9767 -1.13625 -80.5169
rradius 29.6593
rwrist -9.84483
rhand -21.6983 -20.191
rfingers 7.12502
rthumb 4.70009 -50.1189
lclavicle 2.21769e-014 1.59028e-015
lhumerus -45.2736 -15.7702 76.5837
lradius 30.826
lwrist -3.78929
lhand -22.6664 30.5549
lfingers 7.12502
lthumb 3.7653 60.5013
rfemur -39.3551 26.2086 8.59793
rtibia -0.283334
rfoot -36.8503 -28.8797
rtoes 8.27312
lfemur 9.40503 -23.7213 -37.9343
ltibia -0.420204
lfoot -23.0558 -20.6955
ltoes -7.65128
78
root -36.2012 15.5312 0.566937 -193.426 86.4572 -207.996
lowerback 13.7454 2.30474 2.34298
upperback -9.879 3.32985 -3.99318
thorax -18.9304 0.873907 -7.05767
lowerneck -17.388 -5.96096 -0.868988
upperneck 41.4061 -10.2761 7.7086
head 19.4979 -2.31985 2.01181
rclavicle 6.62885e-014 -2.22639e-014
rhumerus -58.3532 -1.61808 -80.1458
rradius 29.906
rwrist -10.2568
rhand -20.8696 -22.0413
rfingers 7.12502
rthumb 5.5003 -51.9499
lclavicle 6.62885e-014 -2.22639e-014
lhumerus -45.0106 -16.4773 77.1508
lradius 31.1819
lwrist -3.55343
lhand -22.7553 30.4797
lfingers 7.12502
lthumb 3.67945 60.4276
rfemur -39.4959 26.0485 8.45963
rtibia -1.22903
rfoot -34.2326 -28.591
rtoes 6.38581
lfemur 10.89 -24.1854 -38.7223
ltibia -0.817836
lfoot -21.2591 -22.4048
ltoes -6.30726
79
root -35.9486 15.4829 0.582392 -195.475 86.1352 -210.088
lowerback 13.6973 2.20849 2.41496
upperback -9.86694 3.20323 -4.06417
thorax -18.8934 0.803862 -7.14279
lowerneck -17.3367 -6.08733 -1.00448
upperneck 41.3746 -10.411 7.66749
head 19.4791 -2.4058 1.98434
rclavicle -8.51047e-015 1.82882e-014
rhumerus -58.79 -1.84961 -80.0853
rradius 29.6624
rwrist -9.7447
rhand -21.2389 -22.1428
rfingers 7.12502
rthumb 5.14366 -52.0604
lclavicle -8.51047e-015 1.82882e-014
lhumerus -44.6578 -16.9924 77.5999
lradius 31.5239
lwrist -3.43398
lhand -22.6712 30.0987
lfingers 7.12502
lthumb 3.76065 60.0452
rfemur -39.8387 25.7401 8.10792
rtibia -0.629556
rfoot -27.672 -30.5175
rtoes -5.79144
lfemur 12.2188 -24.7319 -39.5499
ltibia -1.3424
lfoot -19.6957 -23.8817
ltoes -6.6947
80
root -35.6866 15.4376 0.599685 -197.175 85.7327 -211.808
lowerback 13.6936 2.09393 2.49085
upperback -9.87114 3.05454 -4.12801
thorax -18.9121 0.720684 -7.22161
lowerneck -17.2619 -6.18006 -1.16565
upperneck 41.3396 -10.4654 7.59059
head 19.4416 -2.47074 1.96133
rclavicle 4.35214e-014 -4.29375e-014
rhumerus -59.2564 -2.10178 -79.9818
rradius 29.3745
rwrist -9.78559
rhand -21.4392 -21.1036
rfingers 7.12502
rthumb 4.95031 -51.0258
lclavicle 4.35214e-014 -4.29375e-014
lhumerus -44.4547 -17.6534 78.1723
lradius 32.1103
lwrist -2.96174
lhand -22.7118 29.766
lfingers 7.12502
lthumb 3.72137 59.7133
rfemur -40.2878 25.3182 7.70669
rtibia 0.613262
rfoot -25.3881 -31.0781
rtoes -11.6007
lfemur 13.2861 -24.7809 -40.2257
ltibia -1.28719
lfoot -15.3811 -26.3057
ltoes -9.86737
81
root -35.4118 15.3948 0.619547 -197.507 85.3726 -212.188
lowerback 13.6888 1.9664 2.70579
upperback -9.92045 2.92435 -4.17313
thorax -18.9832 0.625884 -7.36757
lowerneck -17.2291 -6.29926 -1.30586
upperneck 41.3371 -10.5447 7.43507
head 19.4281 -2.55099 1.89094
rclavicle 4.48135e-014 2.54444e-014
rhumerus -59.7067 -2.27215 -79.9428
rradius 29.121
rwrist -9.93805
rhand -21.5729 -20.207
rfingers 7.12502
rthumb 4.82116 -50.1321
lclavicle 4.48135e-014 2.54444e-014
lhumerus -44.4474 -18.3592 78.7663
lradius 32.9324
lwrist -2.40705
lhand -22.7936 29.4984
lfingers 7.12502
lthumb 3.64245 59.4471
rfemur -41.6465 24.9474 7.40324
rtibia 3.80051
rfoot -24.9203 -32.3288
rtoes -16.6443
lfemur 14.1801 -24.8121 -40.7189
ltibia -0.798859
lfoot -14.3641 -26.5252
ltoes -11.5595
82
root -35.1278 15.3549 0.641515 -197.701 85.0583 -212.384
lowerback 13.7208 1.8521 2.94887
upperback -9.98448 2.8229 -4.19637
thorax -19.0958 0.539092 -7.51646
lowerneck -17.1218 -6.43993 -1.55394
upperneck 41.303 -10.6505 7.3727
head 19.3956 -2.64867 1.88042
rclavicle -2.91965e-015 1.03368e-014
rhumerus -60.1661 -2.40175 -79.9174
rradius 28.9154
rwrist -9.55005
rhand -21.9718 -20.0161
rfingers 7.12502
rthumb 4.43598 -49.9497
lclavicle -2.91965e-015 1.03368e-014
lhumerus -44.5659 -18.9398 79.3521
lradius 33.9347
lwrist -1.96804
lhand -22.7995 30.0247
lfingers 7.12502
lthumb 3.63672 59.9734
rfemur -41.019 20.5929 11.1676
rtibia 6.45901
rfoot -19.7508 -30.0851
rtoes -20.3439
lfemur 14.7684 -24.129 -40.8798
ltibia -0.0597695
lfoot -13.0253 -26.1838
ltoes -15.2401
